<svg version="1.1" id="Layer_1" xmlns="http://www.w3.org/2000/svg" xmlns:xlink="http://www.w3.org/1999/xlink" x="0px" y="0px"
	 width="100%" viewBox="0 0 4726 1345" enable-background="new 0 0 4726 1345" xml:space="preserve">
<path fill="#FFFFFF" opacity="1.000000" stroke="none" 
	d="
M1777.575928,4.479565 
	C1777.617188,8.810328 1777.694824,13.141090 1777.694946,17.471853 
	C1777.700928,250.049988 1777.700073,482.628113 1777.700073,715.206238 
	C1777.700073,719.436401 1777.700073,723.666565 1777.700073,728.265991 
	C1971.018433,728.265991 2163.096191,728.265991 2356.326172,728.265991 
	C2356.326172,487.248291 2356.326172,246.770538 2357.273438,5.253178 
	C2373.072266,4.139731 2387.925781,4.173865 2402.773682,3.903747 
	C2405.859863,3.847610 2408.925049,2.664001 2412.000000,2.000000 
	C2440.708496,2.000000 2469.416992,2.000000 2499.062744,2.000001 
	C2499.899414,6.326130 2499.710938,10.652252 2499.710693,14.978386 
	C2499.696533,273.553650 2499.714355,532.128967 2499.660645,790.704224 
	C2499.657227,807.860046 2497.099854,824.449219 2486.346191,838.698364 
	C2473.636963,855.538635 2456.863525,865.282043 2435.806641,867.123718 
	C2427.534424,867.847107 2419.189453,867.969177 2410.877441,867.970703 
	C2178.626221,868.013062 1946.374878,867.981812 1714.123657,868.048584 
	C1695.769165,868.053833 1678.331055,865.328186 1663.134155,854.091187 
	C1647.046875,842.195862 1637.347290,826.534180 1635.752563,806.418640 
	C1634.887451,795.505310 1634.363403,784.533508 1634.360107,773.587891 
	C1634.284424,521.010498 1634.301758,268.433105 1634.299316,15.855699 
	C1634.299316,11.857472 1634.265869,7.859247 1634.124023,2.930511 
	C1662.708496,2.000000 1691.416870,2.000000 1721.618164,2.636079 
	C1726.717041,3.512129 1730.320801,3.908012 1733.929810,3.964708 
	C1748.477539,4.193247 1763.027100,4.317067 1777.575928,4.479565 
z"/>
<path fill="#FFFFFF" opacity="1.000000" stroke="none" 
	d="
M145.951767,4.067668 
	C146.071503,8.059167 146.295395,12.050652 146.295883,16.042166 
	C146.313843,159.692841 146.372955,303.343597 146.144897,446.993896 
	C146.132263,454.953583 148.340393,460.517670 154.017883,466.173645 
	C246.341888,558.147644 338.439392,650.348999 430.594025,742.492981 
	C433.147125,745.045776 435.766296,747.532532 439.560089,751.222412 
	C442.317841,747.795532 444.374878,744.695068 446.952606,742.114807 
	C538.585693,650.392090 630.214661,558.665100 722.066467,467.161774 
	C727.933289,461.317230 730.515259,455.675171 730.500305,447.256775 
	C730.238525,300.270203 730.322205,153.283035 731.276855,5.256700 
	C774.370850,4.143511 816.518799,4.052633 858.666809,4.018410 
	C863.635559,4.014375 868.604553,4.321327 873.573486,4.484117 
	C873.613708,56.794815 873.679993,109.105507 873.688721,161.416214 
	C873.706726,269.371307 873.627319,377.326477 873.750854,485.281403 
	C873.775330,506.678772 866.544678,524.594727 851.331604,539.780457 
	C744.035461,646.883667 636.850952,754.098938 529.795471,861.442627 
	C524.895325,866.356018 520.057495,868.182861 513.224731,868.146240 
	C463.246979,867.877930 413.266754,867.909546 363.288361,868.115540 
	C356.878174,868.141968 352.193604,866.508484 347.517975,861.820984 
	C240.454956,754.484436 133.264267,647.275146 25.967815,540.171936 
	C13.766395,527.992493 6.633513,513.500793 2.596707,496.444794 
	C2.000000,332.624878 2.000000,169.249756 2.937314,4.935630 
	C51.233673,4.020309 98.592720,4.043989 145.951767,4.067668 
z"/>
<path fill="#FFFFFF" opacity="1.000000" stroke="none" 
	d="
M4624.899902,1348.000000 
	C4618.873535,1344.591431 4617.534668,1339.752441 4618.203125,1333.856445 
	C4618.606445,1330.302124 4618.277344,1326.664673 4618.277344,1322.228149 
	C4622.651367,1322.521240 4626.165039,1322.702515 4629.668457,1323.002808 
	C4637.141602,1323.643799 4643.213867,1320.757935 4645.834473,1313.928589 
	C4649.735352,1303.764038 4652.632812,1293.198364 4655.570801,1282.695190 
	C4656.128906,1280.699707 4655.112793,1278.133911 4654.447266,1275.944946 
	C4640.058594,1228.576294 4625.608887,1181.226196 4611.201172,1133.863281 
	C4609.959961,1129.782959 4608.925293,1125.639771 4607.574707,1120.725830 
	C4617.139160,1120.725830 4625.945801,1120.725830 4636.281250,1120.725830 
	C4646.997070,1161.009399 4657.887207,1201.947144 4668.764648,1242.837646 
	C4669.161133,1242.884033 4669.437988,1242.976318 4669.689941,1242.930908 
	C4670.000000,1242.875000 4670.508301,1242.761353 4670.557129,1242.575073 
	C4681.150879,1202.112061 4691.711426,1161.640381 4702.563477,1120.056274 
	C4710.361816,1120.056274 4718.254395,1120.056274 4727.073242,1120.028076 
	C4728.000000,1121.500000 4728.000000,1123.000000 4727.446289,1125.775879 
	C4721.915039,1145.251953 4717.109375,1163.500854 4711.926270,1181.642334 
	C4699.359863,1225.622925 4686.524902,1269.526978 4673.995605,1313.517944 
	C4669.139648,1330.567627 4659.773438,1343.099243 4642.000000,1348.000000 
	C4636.600098,1348.000000 4631.199707,1348.000000 4624.899902,1348.000000 
z"/>
<path fill="#FFFFFF" opacity="1.000000" stroke="none" 
	d="
M1527.064331,2.000000 
	C1528.000000,2.000000 1528.096069,2.813340 1527.187500,3.360584 
	C1521.946899,3.938104 1517.614868,3.994769 1513.282959,3.994865 
	C1315.657959,3.999235 1118.032837,3.995419 920.407776,4.018439 
	C915.751038,4.018982 911.094360,4.314163 906.437622,4.471916 
	C906.349548,4.062605 906.261536,3.653294 906.086731,2.621992 
	C1112.709595,2.000000 1319.419067,2.000000 1527.064331,2.000000 
z"/>
<path fill="#FFFFFF" opacity="1.000000" stroke="none" 
	d="
M873.705994,3.867536 
	C868.604553,4.321327 863.635559,4.014375 858.666809,4.018410 
	C816.518799,4.052633 774.370850,4.143511 731.323853,4.351616 
	C730.336670,4.074491 730.248535,3.663144 730.080200,2.625898 
	C777.375122,2.000000 824.750244,2.000000 873.062683,2.000000 
	C873.946167,2.416985 873.892334,2.833970 873.705994,3.867536 
z"/>
<path fill="#FFFFFF" opacity="1.000000" stroke="none" 
	d="
M145.992157,3.551412 
	C98.592720,4.043989 51.233673,4.020309 2.937314,3.998315 
	C2.135574,-0.427185 5.477122,2.144477 6.958293,2.138970 
	C52.680191,1.968991 98.402840,2.000000 145.062683,2.000000 
	C146.010849,2.345052 146.021683,2.690103 145.992157,3.551412 
z"/>
<path fill="#FFFFFF" opacity="1.000000" stroke="none" 
	d="
M1777.708008,3.864120 
	C1763.027100,4.317067 1748.477539,4.193247 1733.929810,3.964708 
	C1730.320801,3.908012 1726.717041,3.512129 1722.555420,2.636079 
	C1740.041748,2.000000 1758.083618,2.000000 1777.062744,2.000000 
	C1777.946533,2.416225 1777.893188,2.832451 1777.708008,3.864120 
z"/>
<path fill="#FFFFFF" opacity="1.000000" stroke="none" 
	d="
M2411.062744,2.000000 
	C2408.925049,2.664001 2405.859863,3.847610 2402.773682,3.903747 
	C2387.925781,4.173865 2373.072266,4.139731 2357.321533,4.347915 
	C2356.334961,4.071464 2356.247314,3.660694 2356.079590,2.624962 
	C2374.041748,2.000000 2392.083740,2.000000 2411.062744,2.000000 
z"/>
<path fill="#FFFFFF" opacity="1.000000" stroke="none" 
	d="
M1212.002808,365.178040 
	C1338.942261,365.177612 1464.881958,365.177612 1591.670166,365.177612 
	C1591.908203,368.625610 1592.280396,371.506897 1592.281006,374.388245 
	C1592.309448,516.020203 1592.581421,657.653198 1592.069946,799.283325 
	C1591.969604,827.063110 1578.319092,847.752808 1552.594849,860.084839 
	C1539.251343,866.481628 1525.205322,867.919678 1510.925293,867.927063 
	C1307.308472,868.033020 1103.691772,867.999268 900.074951,867.999329 
	C867.083008,867.999329 834.085999,868.357849 801.100769,867.886353 
	C774.527161,867.506470 752.585571,857.126221 738.063354,834.164612 
	C730.655823,822.452209 727.602112,809.173096 727.664185,795.197083 
	C727.778076,769.537170 727.755005,743.876160 727.630981,718.216370 
	C727.612000,714.287476 728.655945,711.324402 731.501221,708.488403 
	C776.110596,664.024353 820.624695,619.464722 865.183350,574.949829 
	C866.264038,573.870178 867.605225,573.051331 870.014648,571.193542 
	C870.014648,624.239624 870.014648,675.713074 870.014648,726.173828 
	C871.007568,727.429016 871.178406,727.703247 871.406128,727.916870 
	C871.646973,728.142883 871.927795,728.453491 872.215576,728.482239 
	C874.845337,728.744812 877.480530,729.150696 880.114075,729.150391 
	C1068.732544,729.131165 1257.350952,729.079895 1445.969360,728.985657 
	C1446.886597,728.985229 1447.803467,728.338806 1449.184082,727.819885 
	C1449.184082,654.027039 1449.184082,580.181396 1449.184082,505.126740 
	C1426.453247,504.488861 1403.891846,504.917847 1381.344360,504.840088 
	C1359.016724,504.763123 1336.688721,504.823273 1314.360840,504.823273 
	C1291.699707,504.823273 1269.038574,504.823273 1246.377441,504.823273 
	C1224.107544,504.823273 1201.837769,504.823242 1178.945679,504.823242 
	C1178.945679,458.060608 1178.945679,412.262970 1178.945679,365.178467 
	C1189.887817,365.178467 1200.445557,365.178467 1212.002808,365.178040 
z"/>
<path fill="#FFFFFF" opacity="1.000000" stroke="none" 
	d="
M906.386719,5.375237 
	C911.094360,4.314163 915.751038,4.018982 920.407776,4.018439 
	C1118.032837,3.995419 1315.657959,3.999235 1513.282959,3.994865 
	C1517.614868,3.994769 1521.946899,3.938104 1527.218262,3.768923 
	C1564.655518,5.870677 1592.138550,35.967262 1592.279541,73.416199 
	C1592.406250,107.056602 1592.306885,140.697845 1592.307007,174.338730 
	C1592.307129,197.321121 1592.307129,220.303497 1592.307129,243.285889 
	C1592.307129,246.557144 1592.307007,249.828415 1592.307007,254.504761 
	C1544.334595,249.087906 1497.394409,243.787598 1449.613159,238.392334 
	C1449.613159,205.794067 1449.613159,173.953232 1449.613159,140.993530 
	C1268.313477,140.993530 1087.944824,140.993530 906.335876,140.993530 
	C906.335876,95.337563 906.335876,50.808060 906.386719,5.375237 
z"/>
<path fill="#FFFFFF" opacity="1.000000" stroke="none" 
	d="
M2838.332275,1259.922607 
	C2838.332275,1266.543701 2838.332275,1272.179443 2838.332275,1278.624634 
	C2829.613037,1278.624634 2821.503662,1278.624634 2812.196533,1278.624634 
	C2812.028564,1275.369629 2811.696289,1271.877563 2811.691895,1268.384888 
	C2811.651367,1236.736084 2811.726562,1205.087036 2811.603027,1173.438721 
	C2811.584961,1168.830811 2811.173340,1164.114868 2810.126953,1159.640015 
	C2806.027832,1142.114136 2788.137939,1135.396973 2773.631104,1146.010254 
	C2766.135010,1151.494629 2761.208984,1158.902832 2760.360840,1168.458984 
	C2759.979004,1172.762207 2759.761475,1177.094360 2759.753662,1181.413818 
	C2759.702148,1210.397461 2759.726807,1239.380981 2759.726562,1268.364624 
	C2759.726562,1271.621704 2759.726562,1274.878784 2759.726562,1278.783936 
	C2750.359863,1278.783936 2741.908691,1278.783936 2732.273438,1278.783936 
	C2732.273438,1274.824829 2732.273682,1271.266724 2732.273682,1267.708618 
	C2732.273682,1236.392944 2732.273926,1205.077393 2732.272949,1173.761719 
	C2732.272705,1171.429688 2732.322998,1169.095825 2732.246582,1166.766113 
	C2731.888916,1155.891968 2727.693359,1147.377930 2717.096680,1143.147339 
	C2708.587158,1139.749756 2696.256836,1143.480591 2689.116455,1151.456299 
	C2683.859619,1157.328613 2680.689941,1164.177246 2680.335693,1172.126221 
	C2680.024414,1179.107178 2679.771729,1186.097290 2679.753418,1193.083984 
	C2679.685791,1218.735962 2679.726562,1244.388184 2679.726318,1270.040405 
	C2679.726318,1272.666138 2679.726318,1275.291870 2679.726318,1278.677612 
	C2670.612793,1278.677612 2662.159912,1278.677612 2652.984619,1278.677612 
	C2652.984619,1226.156616 2652.984619,1173.745728 2652.984619,1120.699707 
	C2660.574463,1120.699707 2668.007812,1120.699707 2676.230957,1120.699707 
	C2676.230957,1126.974487 2676.230957,1132.822998 2676.230957,1140.985474 
	C2680.835938,1136.331665 2683.888916,1133.167358 2687.026855,1130.089722 
	C2697.729980,1119.592773 2710.453369,1115.517700 2725.293945,1118.000977 
	C2734.623535,1119.562256 2741.994141,1124.220093 2747.662354,1131.685181 
	C2750.066895,1134.852539 2752.376709,1138.091919 2754.757568,1141.336548 
	C2758.967529,1136.789673 2762.853516,1132.256226 2767.089111,1128.076904 
	C2785.060547,1110.345093 2825.093750,1114.626221 2835.010742,1145.466675 
	C2837.107910,1151.989014 2838.114258,1159.123047 2838.187256,1165.990479 
	C2838.517822,1196.969727 2838.332031,1227.954468 2838.332275,1259.922607 
z"/>
<path fill="#FFFFFF" opacity="1.000000" stroke="none" 
	d="
M1371.611572,1167.177734 
	C1371.187622,1165.027588 1370.632690,1163.781738 1370.460327,1162.484863 
	C1369.157349,1152.683838 1364.227905,1145.156616 1354.654419,1142.670898 
	C1343.762329,1139.843018 1334.315430,1143.985840 1327.048096,1152.465088 
	C1320.189941,1160.466553 1318.389648,1170.251343 1318.357544,1180.400757 
	C1318.265625,1209.391479 1318.324951,1238.382935 1318.324829,1267.374023 
	C1318.324829,1270.976562 1318.324829,1274.579224 1318.324829,1278.802490 
	C1309.284546,1278.802490 1301.136353,1278.802490 1291.675171,1278.802490 
	C1291.675171,1274.950928 1291.675171,1271.414185 1291.675171,1267.877319 
	C1291.675171,1230.222168 1291.675171,1192.566895 1291.675171,1154.911743 
	C1291.675171,1143.686646 1291.675171,1132.461548 1291.675171,1120.648193 
	C1298.793945,1120.648193 1306.627319,1120.648193 1315.293945,1120.648193 
	C1315.293945,1126.748901 1315.293945,1132.622925 1315.293945,1140.833618 
	C1319.658081,1136.421753 1322.530396,1133.596436 1325.316162,1130.688232 
	C1336.081177,1119.450195 1349.226929,1115.872803 1364.404907,1118.010620 
	C1375.203735,1119.531860 1382.183350,1126.358887 1388.533447,1134.266113 
	C1390.146118,1136.274048 1391.569946,1138.433594 1393.594971,1141.235352 
	C1396.901001,1137.631226 1399.903442,1134.640259 1402.586670,1131.386108 
	C1417.460327,1113.347534 1446.753906,1114.660400 1461.354126,1127.118286 
	C1468.856812,1133.520142 1473.088013,1141.516479 1475.401367,1150.647095 
	C1476.776733,1156.075073 1477.588013,1161.795532 1477.618408,1167.390137 
	C1477.810791,1202.711670 1477.720215,1238.034790 1477.690552,1273.357300 
	C1477.689209,1274.961182 1477.376343,1276.564697 1477.144897,1278.776611 
	C1468.349243,1278.776611 1459.896973,1278.776611 1450.281250,1278.776611 
	C1450.281250,1274.796387 1450.281250,1271.234863 1450.281250,1267.673340 
	C1450.281250,1236.349609 1450.364136,1205.025269 1450.200195,1173.702393 
	C1450.172607,1168.436523 1449.775757,1162.977783 1448.348267,1157.949219 
	C1443.492798,1140.846069 1424.846191,1135.741577 1411.078369,1147.174927 
	C1401.205322,1155.373779 1398.346558,1166.178833 1398.334595,1178.250732 
	C1398.305176,1207.908325 1398.324829,1237.566040 1398.324829,1267.223633 
	C1398.324829,1270.846313 1398.324829,1274.468994 1398.324829,1278.758423 
	C1389.410767,1278.758423 1381.262573,1278.758423 1371.657837,1278.758423 
	C1371.657837,1241.737305 1371.657837,1204.897827 1371.611572,1167.177734 
z"/>
<path fill="#FFFFFF" opacity="1.000000" stroke="none" 
	d="
M2176.607910,1137.128174 
	C2170.109131,1163.804810 2171.769043,1189.109253 2181.433105,1214.024048 
	C2196.851562,1253.773804 2239.384521,1263.660522 2271.071533,1250.433472 
	C2271.071533,1228.880005 2271.071533,1207.072510 2271.071533,1184.106079 
	C2264.864258,1184.106079 2258.969482,1184.106079 2253.074707,1184.106079 
	C2247.115234,1184.106079 2241.156006,1184.106079 2234.440674,1184.106079 
	C2234.440674,1176.143433 2234.440674,1168.721436 2234.440674,1160.681152 
	C2255.288818,1160.681152 2276.100830,1160.681152 2297.610352,1160.681152 
	C2297.845459,1162.571655 2298.279053,1164.444214 2298.281494,1166.317139 
	C2298.325684,1198.628906 2298.229248,1230.941040 2298.413086,1263.251831 
	C2298.441162,1268.146484 2297.400146,1271.593628 2292.474365,1273.305054 
	C2264.077148,1283.171143 2235.288330,1285.817139 2206.519043,1275.838135 
	C2181.237305,1267.068726 2163.666504,1249.246094 2153.802490,1224.581543 
	C2137.550293,1183.943848 2137.246582,1143.450073 2159.335205,1104.710449 
	C2175.405273,1076.526489 2201.362061,1062.862183 2233.119873,1060.206055 
	C2250.825684,1058.725220 2268.256348,1060.934692 2285.170654,1067.013062 
	C2290.357178,1068.876831 2292.843262,1071.171021 2292.428467,1076.928589 
	C2291.952881,1083.531494 2292.318359,1090.195068 2292.318359,1098.443604 
	C2287.773682,1096.259277 2284.381348,1094.455444 2280.857178,1092.962769 
	C2255.106445,1082.055054 2229.763428,1081.850342 2205.451904,1096.838257 
	C2190.614746,1105.985352 2181.755615,1119.819214 2176.607910,1137.128174 
z"/>
<path fill="#FFFFFF" opacity="1.000000" stroke="none" 
	d="
M3453.626221,1216.966797 
	C3453.665039,1165.145874 3453.665039,1114.229004 3453.665039,1062.696289 
	C3463.275879,1062.696289 3472.092285,1062.696289 3481.607910,1062.696289 
	C3481.845703,1065.248169 3482.285156,1067.781982 3482.287598,1070.316162 
	C3482.329834,1113.963867 3482.429443,1157.612061 3482.226562,1201.258911 
	C3482.185059,1210.191895 3481.279053,1219.156128 3480.233154,1228.042603 
	C3476.954590,1255.904663 3454.800049,1281.790894 3418.537598,1281.394043 
	C3411.568115,1281.317871 3404.546875,1281.379517 3397.644287,1280.570190 
	C3368.042725,1277.098755 3349.462646,1252.877319 3346.265625,1226.321899 
	C3345.908691,1223.355591 3345.707520,1220.351074 3345.705322,1217.364136 
	C3345.671875,1168.385376 3345.677490,1119.406738 3345.696045,1070.427979 
	C3345.697021,1068.119873 3345.901123,1065.811646 3346.044189,1062.795410 
	C3354.989990,1062.795410 3363.759521,1062.795410 3373.711914,1062.795410 
	C3373.711914,1066.556030 3373.711914,1070.113770 3373.711914,1073.671631 
	C3373.711914,1116.652954 3373.558350,1159.635254 3373.837402,1202.614746 
	C3373.895264,1211.514160 3374.534912,1220.657471 3376.667236,1229.251587 
	C3384.660156,1261.462769 3422.112061,1264.185303 3439.782959,1249.097168 
	C3446.553955,1243.315796 3450.022461,1235.306641 3451.853516,1226.644775 
	C3452.469971,1223.728394 3453.011475,1220.796021 3453.626221,1216.966797 
z"/>
<path fill="#FFFFFF" opacity="1.000000" stroke="none" 
	d="
M405.666504,1128.256470 
	C415.767548,1165.863403 425.739136,1202.664062 435.710754,1239.464722 
	C436.415894,1239.521362 437.121063,1239.577881 437.826202,1239.634521 
	C454.846802,1180.700928 471.867432,1121.767456 488.983154,1062.504639 
	C498.448547,1062.504639 507.646881,1062.504639 517.785950,1062.504639 
	C495.390991,1134.732666 473.191711,1206.329590 450.635986,1279.076172 
	C441.280762,1279.753906 431.805847,1279.493408 421.362091,1279.155518 
	C400.027618,1207.145386 378.760284,1135.361938 357.229706,1062.689941 
	C367.837952,1062.689941 377.302856,1062.689941 387.740387,1062.689941 
	C393.620422,1084.086792 399.578766,1105.768433 405.666504,1128.256470 
z"/>
<path fill="#FFFFFF" opacity="1.000000" stroke="none" 
	d="
M1166.530029,1139.955811 
	C1152.655151,1140.930420 1142.183472,1148.130737 1131.051880,1154.848999 
	C1130.106079,1147.443604 1128.939453,1140.987915 1128.647949,1134.492920 
	C1128.552734,1132.374756 1130.183594,1129.030640 1131.965332,1128.150513 
	C1154.904907,1116.818970 1178.526123,1112.482178 1202.900024,1123.460693 
	C1215.242432,1129.019897 1222.632446,1139.130005 1225.492065,1152.157593 
	C1226.972900,1158.904785 1227.543945,1165.958252 1227.637573,1172.885254 
	C1228.046509,1203.175781 1228.089966,1233.471191 1228.372925,1263.763794 
	C1228.418213,1268.614502 1229.006226,1273.460205 1229.383423,1278.883789 
	C1220.949585,1278.883789 1213.128784,1278.883789 1204.423950,1278.883789 
	C1204.023193,1272.907104 1203.654541,1267.410278 1203.166748,1260.134644 
	C1199.717163,1263.539062 1197.050415,1266.207031 1194.344971,1268.835205 
	C1180.518433,1282.267334 1163.888306,1284.730835 1146.263306,1279.523804 
	C1129.153809,1274.469116 1119.671631,1262.034302 1115.780273,1244.609619 
	C1109.702271,1217.393311 1125.481812,1190.447266 1159.154419,1184.349243 
	C1172.762817,1181.884888 1186.770020,1181.622925 1201.093506,1180.313232 
	C1207.601685,1157.020508 1193.318481,1139.097046 1166.530029,1139.955811 
M1202.286987,1207.304443 
	C1202.034912,1205.104980 1201.782837,1202.905518 1201.501953,1200.454102 
	C1188.254150,1199.573364 1175.734253,1199.766357 1163.513550,1203.583374 
	C1152.957153,1206.880493 1145.670654,1213.538208 1142.604614,1224.415771 
	C1139.358521,1235.931763 1142.939819,1248.903564 1151.570435,1255.113525 
	C1161.579224,1262.315063 1172.183472,1261.726074 1182.640747,1256.192139 
	C1190.271606,1252.153809 1195.168579,1245.625977 1198.417236,1237.620361 
	C1202.149048,1228.423584 1202.442627,1218.870361 1202.286987,1207.304443 
z"/>
<path fill="#FFFFFF" opacity="1.000000" stroke="none" 
	d="
M3005.721191,1164.690186 
	C3006.168213,1203.137695 3006.614014,1240.655396 3007.067139,1278.803711 
	C2999.025879,1278.803711 2991.224365,1278.803711 2982.913330,1278.803711 
	C2982.365234,1273.288086 2981.852783,1268.129395 2981.187744,1261.435425 
	C2978.076416,1264.413574 2975.833984,1266.535522 2973.618408,1268.685181 
	C2953.685303,1288.023682 2924.495117,1283.674072 2909.541260,1271.604370 
	C2902.814209,1266.174927 2898.331055,1259.195190 2896.029785,1251.080811 
	C2887.424561,1220.739868 2899.948730,1195.362427 2930.431885,1186.227051 
	C2946.132812,1181.521729 2962.390381,1180.487061 2978.753418,1181.657349 
	C2984.777344,1159.479614 2973.442383,1141.171387 2952.617920,1139.686768 
	C2943.816895,1139.059326 2935.391602,1141.013794 2927.481689,1144.818604 
	C2921.824707,1147.539673 2916.370361,1150.682373 2910.247314,1153.944824 
	C2907.122559,1146.090942 2907.857910,1138.174927 2907.674316,1129.765869 
	C2928.146973,1118.076050 2949.769531,1113.536011 2972.736328,1120.153076 
	C2994.247803,1126.350586 3004.480957,1141.842407 3005.721191,1164.690186 
M2951.806641,1259.678101 
	C2964.175537,1256.908203 2972.516113,1249.218750 2977.046143,1237.723511 
	C2981.775635,1225.722534 2980.568848,1213.187500 2979.803223,1200.435913 
	C2965.894775,1199.700684 2953.033447,1199.564575 2940.584961,1204.023926 
	C2926.024170,1209.239868 2917.427979,1223.892822 2920.125000,1238.679199 
	C2922.174072,1249.910645 2932.779785,1262.560425 2951.806641,1259.678101 
z"/>
<path fill="#FFFFFF" opacity="1.000000" stroke="none" 
	d="
M1849.765381,1162.016968 
	C1854.277832,1148.349976 1860.910522,1136.965332 1872.037598,1128.779907 
	C1898.484619,1109.324951 1942.914673,1112.793945 1957.644897,1157.925537 
	C1962.755005,1173.582520 1963.212769,1189.837891 1961.759521,1207.401978 
	C1932.074951,1207.401978 1902.631348,1207.401978 1872.526245,1207.401978 
	C1873.278564,1221.736328 1875.551147,1234.223755 1883.815552,1244.859985 
	C1894.128662,1258.133057 1911.239624,1262.604980 1929.856812,1256.629517 
	C1937.353394,1254.223389 1944.551758,1250.888306 1953.309814,1247.410522 
	C1953.462646,1251.732300 1953.650635,1255.496216 1953.713989,1259.262451 
	C1953.780884,1263.234497 1953.728882,1267.208496 1953.728882,1271.159302 
	C1943.282715,1278.020142 1931.679077,1280.022949 1920.214111,1281.181152 
	C1902.663940,1282.954346 1885.932129,1280.567627 1871.298218,1268.888184 
	C1857.488647,1257.866699 1850.036133,1243.284058 1846.688843,1226.734131 
	C1842.364136,1205.352661 1843.066040,1183.857544 1849.765381,1162.016968 
M1878.236084,1187.399780 
	C1897.071045,1187.399780 1915.906128,1187.399780 1935.784424,1187.399780 
	C1934.275269,1177.504272 1933.865967,1168.502930 1931.380981,1160.116699 
	C1928.230225,1149.483276 1921.539429,1141.219360 1909.505737,1139.564941 
	C1897.014038,1137.847534 1886.869751,1143.199463 1880.609375,1154.493286 
	C1875.351807,1163.978394 1874.137329,1174.549316 1872.825928,1185.041870 
	C1872.749268,1185.656128 1875.237793,1186.591064 1878.236084,1187.399780 
z"/>
<path fill="#FFFFFF" opacity="1.000000" stroke="none" 
	d="
M1538.773193,1232.708740 
	C1534.220581,1209.105103 1533.402222,1186.259644 1539.963013,1163.774292 
	C1546.072021,1142.836792 1558.145386,1126.232910 1580.031738,1120.258667 
	C1611.158203,1111.762329 1637.961548,1124.300537 1648.946289,1160.349731 
	C1653.406860,1174.988281 1654.241089,1190.359375 1653.531128,1207.068359 
	C1623.832520,1208.016479 1594.380493,1206.968628 1565.132080,1207.650879 
	C1559.327637,1236.998047 1581.923950,1262.291504 1610.540649,1258.696899 
	C1617.666382,1257.801758 1624.575806,1254.853027 1631.458496,1252.482056 
	C1635.443604,1251.109131 1639.177002,1249.005615 1643.680786,1246.927734 
	C1643.680786,1254.887695 1644.028687,1261.813599 1643.464844,1268.664307 
	C1643.299805,1270.671265 1640.920044,1273.418823 1638.917114,1274.208862 
	C1619.583618,1281.833618 1599.657959,1284.604126 1579.461304,1278.409058 
	C1564.095703,1273.695679 1553.212158,1263.010376 1545.614136,1249.092529 
	C1542.923584,1244.164307 1541.202271,1238.706909 1538.773193,1232.708740 
M1569.294556,1158.857544 
	C1566.026611,1167.818115 1563.135254,1176.835449 1564.351318,1186.845093 
	C1584.969849,1186.845093 1604.822754,1186.845093 1624.575806,1186.845093 
	C1626.301147,1176.612793 1623.671509,1159.910522 1619.159668,1152.669067 
	C1613.424927,1143.464722 1605.411133,1138.665649 1594.179199,1139.352905 
	C1581.958252,1140.100830 1575.051025,1147.474976 1569.294556,1158.857544 
z"/>
<path fill="#FFFFFF" opacity="1.000000" stroke="none" 
	d="
M2414.740723,1281.435913 
	C2387.805908,1279.317871 2365.793213,1259.488892 2358.943359,1229.561035 
	C2353.199951,1204.467896 2354.236572,1179.365356 2363.914551,1155.114624 
	C2369.973633,1139.932129 2380.094727,1128.094482 2395.483643,1122.211182 
	C2425.224854,1110.840454 2454.489258,1120.495239 2467.675049,1153.985474 
	C2474.252686,1170.692261 2474.375488,1188.333496 2474.148682,1207.292603 
	C2444.230225,1207.292603 2414.786865,1207.292603 2385.474854,1207.292603 
	C2382.911621,1241.743042 2404.875488,1263.834717 2433.663086,1258.291626 
	C2440.440186,1256.986572 2446.969482,1254.301636 2453.531006,1252.016724 
	C2456.601807,1250.947510 2459.478027,1249.319580 2463.491699,1247.458252 
	C2463.491699,1256.046997 2463.491699,1263.737305 2463.491699,1271.940918 
	C2448.842773,1280.567627 2432.417236,1281.855469 2414.740723,1281.435913 
M2440.044189,1153.378052 
	C2433.589111,1137.275391 2408.353271,1133.038452 2395.136963,1150.108887 
	C2386.866699,1160.791260 2385.325928,1173.450928 2384.520996,1186.325317 
	C2397.501953,1188.280884 2438.893066,1187.778198 2445.993896,1185.636719 
	C2446.823975,1174.958374 2445.344482,1164.605103 2440.044189,1153.378052 
z"/>
<path fill="#FFFFFF" opacity="1.000000" stroke="none" 
	d="
M4042.926270,1258.064453 
	C4052.807373,1254.739746 4061.808838,1251.507324 4071.821777,1247.911621 
	C4072.860107,1255.161621 4072.636963,1262.578491 4071.422363,1269.925903 
	C4071.166992,1271.471313 4069.202148,1273.378052 4067.603027,1273.961060 
	C4042.754639,1283.020142 4017.767334,1287.082153 3993.924805,1271.626343 
	C3976.336914,1260.225098 3967.633301,1242.530151 3964.936279,1222.427734 
	C3962.003906,1200.572876 3962.044434,1178.577759 3970.156738,1157.452759 
	C3976.946045,1139.773560 3988.405029,1126.163818 4006.847656,1120.552246 
	C4032.061279,1112.880737 4057.904541,1120.278076 4071.276855,1146.246704 
	C4081.039062,1165.204590 4081.961182,1185.509766 4081.499512,1207.114990 
	C4051.624512,1207.114990 4022.451660,1207.114990 3993.541992,1207.114990 
	C3985.536865,1236.900024 4010.486084,1262.537231 4042.926270,1258.064453 
M4037.542480,1142.628174 
	C4022.222656,1135.998169 4008.524170,1139.644165 4000.347900,1153.044922 
	C3994.181152,1163.152588 3992.101807,1174.428589 3991.794678,1186.043823 
	C4001.974854,1188.129761 4046.310547,1187.848755 4053.381348,1185.811279 
	C4054.285889,1165.827515 4050.220459,1154.006226 4037.542480,1142.628174 
z"/>
<path fill="#FFFFFF" opacity="1.000000" stroke="none" 
	d="
M729.999634,1207.439087 
	C713.736267,1207.438843 698.472839,1207.438843 682.122986,1207.438843 
	C682.363159,1225.003662 686.028320,1240.343018 699.750305,1251.371704 
	C712.093689,1261.292358 726.339661,1260.697144 740.556213,1256.298462 
	C747.443237,1254.167603 753.984436,1250.918945 761.557983,1247.817627 
	C761.557983,1255.796387 761.557983,1263.203979 761.557983,1271.503296 
	C753.551147,1278.108765 742.807861,1279.444092 732.478516,1280.818726 
	C712.005005,1283.542847 692.731384,1280.764893 676.863647,1265.601562 
	C668.487549,1257.597168 662.299622,1248.243286 659.066223,1237.285400 
	C650.939819,1209.744995 651.102722,1182.238281 661.661316,1155.296265 
	C668.297241,1138.363647 679.849365,1125.446045 697.641357,1120.479492 
	C726.508728,1112.421509 750.014099,1121.507690 763.786194,1149.899780 
	C770.746582,1164.249390 773.895508,1187.885132 770.435852,1207.439331 
	C757.447876,1207.439331 744.223694,1207.439331 729.999634,1207.439087 
M713.286621,1139.407959 
	C709.196350,1140.609497 704.765198,1141.169922 701.078735,1143.130737 
	C689.245911,1149.424316 680.619202,1171.407715 683.750061,1187.404541 
	C700.824463,1187.404541 718.087830,1187.425781 735.351074,1187.381470 
	C737.952576,1187.374756 740.553345,1187.062744 743.026489,1186.900391 
	C745.025208,1176.284424 742.786560,1162.109497 738.179993,1153.757202 
	C733.120422,1144.583618 725.913635,1139.043579 713.286621,1139.407959 
z"/>
<path fill="#FFFFFF" opacity="1.000000" stroke="none" 
	d="
M3546.276367,1136.156738 
	C3546.276611,1130.577393 3546.276611,1125.972534 3546.276611,1120.731812 
	C3554.865723,1120.731812 3562.652832,1120.731812 3571.271973,1120.731812 
	C3571.271973,1126.717651 3571.271973,1132.585815 3571.271973,1140.463867 
	C3574.167725,1137.660400 3575.820068,1136.368896 3577.096924,1134.776611 
	C3589.809326,1118.924927 3606.541260,1114.693359 3625.384521,1119.524414 
	C3644.510742,1124.427612 3652.878174,1139.024536 3655.785400,1157.442383 
	C3656.198242,1160.058838 3656.304688,1162.746582 3656.307129,1165.401611 
	C3656.340088,1200.700439 3656.337646,1235.999390 3656.307861,1271.298218 
	C3656.305908,1273.584229 3656.005127,1275.870117 3655.799072,1278.783081 
	C3647.362549,1278.783081 3639.219482,1278.783081 3629.670410,1278.783081 
	C3629.670410,1275.049194 3629.670410,1271.523193 3629.670410,1267.997192 
	C3629.670410,1238.692505 3629.744385,1209.387329 3629.605957,1180.083252 
	C3629.579346,1174.475586 3628.937988,1168.842407 3628.200684,1163.271362 
	C3625.461426,1142.572754 3605.086914,1136.405884 3588.981201,1146.994751 
	C3578.089111,1154.155884 3574.849365,1165.314697 3574.475586,1177.202271 
	C3573.774170,1199.488159 3573.893311,1221.800415 3573.737549,1244.102295 
	C3573.658447,1255.384277 3573.723633,1266.667358 3573.723633,1278.686035 
	C3564.585205,1278.686035 3556.135498,1278.686035 3546.276367,1278.686035 
	C3546.276367,1231.416016 3546.276367,1184.273438 3546.276367,1136.156738 
z"/>
<path fill="#FFFFFF" opacity="1.000000" stroke="none" 
	d="
M1054.082520,1140.253906 
	C1058.985718,1149.380371 1060.201050,1158.645264 1060.245239,1167.975586 
	C1060.414185,1203.628296 1060.299805,1239.282349 1060.263062,1274.935913 
	C1060.262085,1275.911133 1059.940430,1276.885986 1059.630859,1278.640137 
	C1051.589233,1278.640137 1043.472412,1278.640137 1034.394531,1278.640137 
	C1034.164307,1275.996582 1033.710815,1273.163574 1033.703491,1270.329590 
	C1033.644897,1247.671387 1033.821289,1225.011230 1033.608276,1202.354858 
	C1033.499146,1190.741089 1032.965820,1179.119141 1032.217896,1167.526978 
	C1031.286133,1153.084961 1024.575562,1144.157715 1013.810486,1142.244629 
	C1000.394348,1139.860229 986.507751,1147.248657 981.969604,1160.513062 
	C979.437927,1167.913086 978.040894,1176.035400 977.908813,1183.862183 
	C977.436584,1211.843994 977.723816,1239.838867 977.723694,1267.828735 
	C977.723694,1271.140869 977.723633,1274.453003 977.723633,1278.599365 
	C968.770935,1278.599365 960.315430,1278.599365 951.820557,1278.599365 
	C949.676270,1270.887207 948.830444,1181.005615 950.384460,1120.741455 
	C957.833313,1120.741455 965.316528,1120.741455 973.774353,1120.741455 
	C974.131409,1126.903687 974.498596,1133.241699 975.017883,1142.203491 
	C987.586548,1123.493042 1003.172058,1115.655273 1023.125549,1118.217773 
	C1036.864990,1119.982178 1047.321167,1127.052490 1054.082520,1140.253906 
z"/>
<path fill="#FFFFFF" opacity="1.000000" stroke="none" 
	d="
M3151.684082,1188.046631 
	C3151.671631,1180.396606 3152.043701,1173.709351 3151.565918,1167.083374 
	C3150.606934,1153.786865 3143.603760,1144.563965 3133.434570,1142.381104 
	C3121.228271,1139.760986 3107.587402,1146.486450 3101.707764,1157.906494 
	C3097.317383,1166.434082 3096.511719,1175.738892 3096.417236,1184.979736 
	C3096.134766,1212.614502 3096.315674,1240.253906 3096.315674,1267.891602 
	C3096.315674,1271.193115 3096.315674,1274.494751 3096.315674,1279.176270 
	C3091.571045,1279.262939 3087.402832,1279.367310 3083.234131,1279.407104 
	C3079.281006,1279.444946 3075.327393,1279.415405 3070.246338,1279.415405 
	C3070.039307,1275.343628 3069.710205,1271.851807 3069.707031,1268.359741 
	C3069.671387,1226.736694 3069.747314,1185.113403 3069.624512,1143.490723 
	C3069.603271,1136.235962 3068.798828,1128.983398 3068.305176,1120.893921 
	C3076.492920,1120.893921 3084.287842,1120.893921 3093.246582,1120.893921 
	C3093.246582,1126.610596 3093.246582,1132.702271 3093.246582,1139.968628 
	C3097.697510,1135.851074 3101.082520,1132.959595 3104.194824,1129.799072 
	C3119.435547,1114.323242 3147.383789,1114.992554 3161.225586,1125.854736 
	C3171.968750,1134.284912 3177.868408,1145.420532 3178.065186,1158.415527 
	C3178.660645,1197.696655 3178.228516,1236.993530 3178.162598,1276.284180 
	C3178.161621,1276.898438 3177.722412,1277.511963 3177.241943,1278.769653 
	C3169.346680,1278.769653 3161.204102,1278.769653 3151.684082,1278.769653 
	C3151.684082,1248.697998 3151.684082,1218.867554 3151.684082,1188.046631 
z"/>
<path fill="#FFFFFF" opacity="1.000000" stroke="none" 
	d="
M3824.244629,1121.016113 
	C3836.452393,1162.713257 3847.999268,1203.865967 3860.144043,1247.149902 
	C3872.394043,1203.662109 3884.077148,1162.187134 3895.818115,1120.506470 
	C3905.247559,1120.506470 3914.110107,1120.506470 3924.031250,1120.506470 
	C3907.759766,1173.785156 3891.701904,1226.365356 3875.497070,1279.425659 
	C3866.158691,1279.425659 3857.531006,1279.296631 3848.909912,1279.478638 
	C3844.417969,1279.573364 3842.725586,1277.541016 3841.480957,1273.323853 
	C3833.118164,1244.978516 3824.417969,1216.732910 3815.839600,1188.451050 
	C3809.959473,1169.064575 3804.076660,1149.678833 3798.254150,1130.275024 
	C3797.332031,1127.202148 3796.722656,1124.035522 3795.862549,1120.471680 
	C3805.685791,1120.471680 3814.634766,1120.471680 3824.244629,1121.016113 
z"/>
<path fill="#FFFFFF" opacity="1.000000" stroke="none" 
	d="
M1707.393311,1182.057373 
	C1701.041870,1162.678589 1701.892944,1145.243286 1716.624268,1130.526245 
	C1723.990234,1123.167480 1733.343872,1119.324219 1743.411987,1118.332153 
	C1757.369385,1116.956909 1771.239502,1118.380981 1785.156006,1122.855103 
	C1784.313843,1130.786499 1783.497314,1138.477295 1782.644653,1146.507812 
	C1774.160156,1144.351807 1766.906860,1142.222046 1759.528442,1140.698364 
	C1747.302734,1138.173584 1736.638916,1143.517456 1732.226562,1153.637817 
	C1729.063965,1160.892090 1730.189087,1167.556396 1735.350586,1173.058350 
	C1738.682007,1176.609253 1742.997314,1179.410034 1747.258179,1181.880005 
	C1755.879883,1186.877930 1765.028198,1190.995850 1773.493774,1196.229736 
	C1805.018066,1215.719971 1795.814575,1261.499512 1771.813110,1275.394775 
	C1763.134277,1280.419434 1753.666992,1282.022217 1744.022217,1281.939819 
	C1730.326782,1281.822998 1719.009888,1281.239014 1701.749756,1273.051636 
	C1702.548706,1265.187256 1703.375366,1257.050415 1704.137085,1249.552368 
	C1715.270874,1252.693481 1725.896606,1256.413452 1736.832153,1258.535522 
	C1744.787720,1260.079102 1752.708008,1258.064331 1759.065308,1252.189453 
	C1769.731201,1242.333130 1769.623535,1227.412231 1757.887329,1218.616333 
	C1751.588623,1213.895630 1744.000610,1210.862061 1736.901001,1207.250610 
	C1725.272339,1201.335083 1713.681885,1195.432739 1707.393311,1182.057373 
z"/>
<path fill="#FFFFFF" opacity="1.000000" stroke="none" 
	d="
M4255.216797,1176.001465 
	C4254.601562,1169.592163 4253.736816,1163.943604 4254.030273,1158.355591 
	C4255.375000,1132.756348 4275.484863,1119.532837 4295.896484,1118.132935 
	C4308.924316,1117.239502 4321.793457,1118.627075 4335.187500,1122.887451 
	C4334.273438,1130.697510 4333.343750,1138.639160 4332.399414,1146.705933 
	C4323.666992,1144.388062 4316.385742,1142.061768 4308.938477,1140.569214 
	C4297.262207,1138.229248 4286.793457,1143.634399 4282.396484,1153.281616 
	C4278.923340,1160.901611 4280.226074,1167.750977 4285.742676,1173.517212 
	C4288.891113,1176.807739 4292.908203,1179.429565 4296.898438,1181.716187 
	C4304.105957,1185.846313 4311.624023,1189.430786 4318.947266,1193.364746 
	C4339.498047,1204.404785 4347.846191,1224.077026 4341.340332,1248.363403 
	C4336.387695,1266.851318 4322.351074,1279.171631 4303.096680,1281.307983 
	C4285.604004,1283.248779 4268.633301,1280.993652 4251.730957,1273.282715 
	C4252.541016,1265.309814 4253.366699,1257.182861 4254.224609,1248.740356 
	C4261.953125,1251.543579 4268.984375,1254.353149 4276.184082,1256.631226 
	C4283.212402,1258.855103 4290.440430,1259.772339 4297.803711,1257.984497 
	C4306.976562,1255.757690 4313.354492,1250.297485 4315.816895,1241.211426 
	C4318.451660,1231.485352 4315.016113,1222.779175 4306.025391,1217.083374 
	C4299.596680,1213.010620 4292.460938,1210.051392 4285.627441,1206.620972 
	C4272.339844,1199.950562 4259.792969,1192.541016 4255.216797,1176.001465 
z"/>
<path fill="#FFFFFF" opacity="1.000000" stroke="none" 
	d="
M4530.323242,1190.000000 
	C4530.324219,1206.994629 4530.161133,1222.991455 4530.381836,1238.983032 
	C4530.545410,1250.872681 4535.491211,1257.142456 4545.224121,1257.915771 
	C4549.124023,1258.225586 4553.125000,1257.451172 4557.062988,1257.019409 
	C4558.662598,1256.844116 4560.218750,1256.267334 4561.758789,1255.882080 
	C4563.908691,1262.157104 4563.908691,1262.157104 4561.497070,1277.856567 
	C4547.008789,1283.084473 4532.501465,1282.175903 4518.592285,1275.403320 
	C4510.350586,1271.390503 4505.884766,1263.687134 4504.244141,1254.828369 
	C4503.041992,1248.336304 4502.416016,1241.651611 4502.367676,1235.046631 
	C4502.166992,1207.723999 4502.283691,1180.399048 4502.283691,1153.074951 
	C4502.283691,1149.805664 4502.283691,1146.536255 4502.283691,1142.327393 
	C4493.975586,1142.327393 4486.460938,1142.327393 4478.327148,1142.327393 
	C4478.327148,1134.618042 4478.327148,1127.862305 4478.327148,1120.134033 
	C4486.170410,1120.134033 4493.686523,1120.134033 4502.098633,1120.134033 
	C4502.098633,1109.028687 4502.098633,1098.843262 4502.098633,1088.191040 
	C4511.647949,1085.395386 4520.463867,1082.814331 4530.256348,1079.947510 
	C4530.256348,1093.508057 4530.256348,1106.076904 4530.256348,1119.727539 
	C4541.441406,1119.727539 4551.912598,1119.727539 4563.039062,1119.727539 
	C4563.039062,1127.309937 4563.039062,1133.826172 4563.039062,1141.458130 
	C4552.900391,1141.458130 4542.436523,1141.458130 4530.692383,1141.458130 
	C4530.559082,1150.343872 4530.395996,1158.175415 4530.335938,1166.007812 
	C4530.277344,1173.671387 4530.323242,1181.335938 4530.323242,1190.000000 
z"/>
<path fill="#FFFFFF" opacity="1.000000" stroke="none" 
	d="
M837.692383,1251.814453 
	C837.196411,1246.021729 836.368042,1241.083008 836.345154,1236.140625 
	C836.216919,1208.511353 836.283447,1180.881226 836.283447,1153.251343 
	C836.283447,1149.967896 836.283447,1146.684570 836.283447,1142.458740 
	C828.117737,1142.458740 820.617615,1142.458740 812.405090,1142.458740 
	C812.405090,1134.766602 812.405090,1128.013062 812.405090,1120.293823 
	C819.985779,1120.293823 827.498047,1120.293823 835.915527,1120.293823 
	C835.915527,1109.212769 835.915527,1099.040405 835.915527,1088.121216 
	C845.398254,1085.385132 854.222107,1082.839111 864.295410,1079.932617 
	C864.295410,1093.538940 864.295410,1106.317993 864.295410,1119.789551 
	C875.594666,1119.789551 885.817383,1119.789551 896.874878,1119.789551 
	C896.874878,1127.233521 896.874878,1133.973389 896.874878,1141.816406 
	C886.539246,1141.816406 876.070251,1141.816406 865.086426,1141.816406 
	C864.772461,1145.388550 864.357117,1147.941284 864.352966,1150.494629 
	C864.306519,1179.123169 864.323425,1207.751709 864.323608,1236.380249 
	C864.323608,1237.378906 864.291138,1238.379150 864.334534,1239.375977 
	C864.928833,1253.039185 870.866028,1258.645142 884.490112,1257.998657 
	C888.395569,1257.813232 892.261414,1256.793091 897.356262,1255.957031 
	C896.894104,1263.053345 896.457336,1269.759521 896.022034,1276.443115 
	C878.987854,1286.392090 840.510620,1281.293945 837.692383,1251.814453 
z"/>
<path fill="#FFFFFF" opacity="1.000000" stroke="none" 
	d="
M2529.674805,1180.018311 
	C2529.030518,1159.828003 2528.386475,1140.633789 2527.719238,1120.747559 
	C2535.815918,1120.747559 2543.310059,1120.747559 2551.278320,1120.747559 
	C2555.968506,1127.293213 2552.480225,1135.318359 2554.228516,1143.045044 
	C2560.427246,1136.627686 2565.953613,1129.774414 2572.619385,1124.312378 
	C2579.832764,1118.402222 2588.783936,1116.880859 2598.905762,1118.664429 
	C2598.905762,1126.610352 2598.905762,1134.685669 2598.905762,1143.577393 
	C2597.088135,1143.577393 2595.228760,1143.527222 2593.372559,1143.584839 
	C2569.004395,1144.341064 2556.254639,1164.257812 2556.305420,1182.551636 
	C2556.383789,1210.842285 2556.325439,1239.133179 2556.324951,1267.423950 
	C2556.324951,1271.017334 2556.324951,1274.610596 2556.324951,1278.813232 
	C2547.262207,1278.813232 2539.122070,1278.813232 2529.675049,1278.813232 
	C2529.675049,1245.994141 2529.675049,1213.504150 2529.674805,1180.018311 
z"/>
<path fill="#FFFFFF" opacity="1.000000" stroke="none" 
	d="
M4159.504395,1122.749268 
	C4159.987305,1129.877319 4160.310547,1136.108765 4160.668945,1143.005615 
	C4167.182129,1136.354370 4172.713867,1129.458374 4179.482422,1124.134766 
	C4186.685547,1118.468750 4195.511230,1116.685059 4205.238281,1118.870483 
	C4205.238281,1126.999878 4205.238281,1134.845459 4205.238281,1143.219971 
	C4201.841797,1143.539917 4198.617188,1143.700439 4195.437012,1144.167114 
	C4176.823730,1146.897461 4164.587402,1159.256592 4163.885254,1178.149292 
	C4162.799805,1207.360474 4162.789062,1236.611816 4162.340332,1265.846436 
	C4162.279785,1269.812134 4162.332031,1273.779663 4162.332031,1278.324707 
	C4153.742676,1280.339722 4145.660645,1279.417236 4136.814941,1278.929321 
	C4136.619629,1275.311768 4136.300781,1272.098877 4136.296387,1268.885376 
	C4136.257324,1239.931641 4136.333008,1210.977783 4136.245605,1182.024292 
	C4136.207520,1169.387939 4136.045898,1156.746094 4135.598633,1144.118896 
	C4135.331055,1136.551392 4134.402832,1129.007202 4133.655762,1120.066772 
	C4142.731445,1120.907104 4151.099121,1118.050659 4159.504395,1122.749268 
z"/>
<path fill="#FFFFFF" opacity="1.000000" stroke="none" 
	d="
M3718.254883,1237.999634 
	C3718.254883,1198.458252 3718.254883,1159.916748 3718.254883,1120.714966 
	C3727.516602,1120.714966 3735.968750,1120.714966 3745.089844,1120.714966 
	C3745.089844,1173.244995 3745.089844,1225.642334 3745.089844,1278.752686 
	C3736.502930,1278.752686 3728.056641,1278.752686 3718.254639,1278.752686 
	C3718.254639,1265.372437 3718.254639,1252.185913 3718.254883,1237.999634 
z"/>
<path fill="#FFFFFF" opacity="1.000000" stroke="none" 
	d="
M4426.310059,1182.000000 
	C4426.310059,1214.611816 4426.310059,1246.223755 4426.310059,1278.618896 
	C4417.576172,1278.618896 4409.462891,1278.618896 4401.310059,1278.618896 
	C4399.249023,1271.570312 4398.372070,1142.255249 4400.333496,1120.795532 
	C4408.397461,1120.795532 4416.545410,1120.795532 4425.813965,1120.795532 
	C4426.932129,1130.659424 4426.128418,1140.872559 4426.277832,1151.025635 
	C4426.424805,1161.015015 4426.310059,1171.008423 4426.310059,1182.000000 
z"/>
<path fill="#FFFFFF" opacity="1.000000" stroke="none" 
	d="
M569.691284,1271.549438 
	C569.690369,1220.739990 569.690369,1170.878906 569.690369,1120.589600 
	C578.967224,1120.589600 587.114502,1120.589600 595.723572,1120.589600 
	C595.723572,1173.517090 595.723572,1225.940186 595.723572,1278.884888 
	C587.270874,1278.884888 579.392334,1278.884888 570.783875,1278.884888 
	C570.427612,1276.800415 570.059937,1274.649170 569.691284,1271.549438 
z"/>
<path fill="#FFFFFF" opacity="1.000000" stroke="none" 
	d="
M2057.980469,1184.072266 
	C2066.905518,1184.072388 2074.833984,1184.072388 2083.537354,1184.072388 
	C2083.537354,1192.017090 2083.537354,1199.414429 2083.537354,1207.467651 
	C2061.586426,1207.467651 2039.549316,1207.467651 2016.895020,1207.467651 
	C2016.895020,1200.113892 2016.895020,1192.946167 2016.895020,1184.344482 
	C2030.095215,1183.784424 2043.551147,1184.202271 2057.980469,1184.072266 
z"/>
<path fill="#FFFFFF" opacity="1.000000" stroke="none" 
	d="
M3747.729004,1073.953613 
	C3747.729004,1078.844482 3747.729004,1082.780884 3747.729004,1087.414551 
	C3737.218994,1087.414551 3727.434326,1087.414551 3716.952393,1087.414551 
	C3716.952393,1077.289429 3716.952393,1067.126465 3716.952393,1055.804932 
	C3726.721436,1054.245483 3736.738281,1054.975586 3747.729248,1055.471802 
	C3747.729248,1061.836182 3747.729248,1067.417603 3747.729004,1073.953613 
z"/>
<path fill="#FFFFFF" opacity="1.000000" stroke="none" 
	d="
M4402.233887,1055.432617 
	C4411.135742,1055.393555 4419.060547,1055.393555 4427.638672,1055.393555 
	C4427.638672,1066.316772 4427.638672,1076.469604 4427.638672,1087.366211 
	C4418.086914,1087.366211 4408.367188,1087.366211 4397.752441,1087.366211 
	C4397.752441,1077.823120 4397.612305,1068.591553 4397.908691,1059.374023 
	C4397.951660,1058.038940 4400.088867,1056.770874 4402.233887,1055.432617 
z"/>
<path fill="#FFFFFF" opacity="1.000000" stroke="none" 
	d="
M598.091064,1085.545044 
	C588.291565,1089.866943 578.513977,1087.434692 568.237976,1087.882812 
	C568.237976,1077.034790 568.237976,1066.902466 568.237976,1056.072266 
	C577.962524,1056.072266 587.413757,1056.072266 598.245300,1056.072266 
	C598.245300,1065.547485 598.245300,1075.070923 598.091064,1085.545044 
z"/>
</svg>